<?xml version="1.0" standalone="no"?>
<!DOCTYPE svg PUBLIC "-//W3C//DTD SVG 20010904//EN"
 "http://www.w3.org/TR/2001/REC-SVG-20010904/DTD/svg10.dtd">
<svg version="1.0" xmlns="http://www.w3.org/2000/svg"
 width="1024.000000pt" height="1024.000000pt" viewBox="0 0 1024.000000 1024.000000"
 preserveAspectRatio="xMidYMid meet">

<g transform="translate(0.000000,1024.000000) scale(0.100000,-0.100000)"
fill="#000000" stroke="none">
<path d="M0 5120 l0 -5120 5120 0 5120 0 0 5120 0 5120 -5120 0 -5120 0 0
-5120z m6403 4000 c64 -33 82 -38 51 -15 -17 13 -16 13 14 3 17 -7 32 -16 32
-20 0 -4 -7 -5 -15 -2 -8 4 -15 2 -15 -4 0 -5 -16 -13 -36 -16 -26 -5 -41 -16
-56 -42 -22 -38 -22 -38 -49 -24 -21 12 -25 41 -8 72 8 15 8 19 -1 13 -6 -4
-15 -18 -20 -31 -9 -24 -11 -24 -40 -9 -23 12 -30 22 -30 45 0 16 -5 32 -11
36 -7 4 -9 0 -5 -13 11 -34 -15 -45 -57 -24 -20 10 -39 15 -44 11 -4 -4 -21
-10 -36 -14 -21 -5 -28 -3 -25 6 11 32 102 55 223 57 60 1 79 -3 128 -29z
m-397 -65 c-20 -30 -13 -32 21 -5 27 21 96 27 122 11 18 -11 7 -16 -61 -31
-32 -6 -58 -14 -58 -17 0 -3 14 -3 31 1 24 5 29 3 21 -7 -16 -20 -52 -120 -52
-147 0 -42 -15 -56 -46 -45 -42 16 -52 40 -31 77 10 17 15 33 11 37 -8 8 -34
-29 -34 -50 0 -26 -14 -30 -38 -13 -15 10 -22 26 -22 47 -1 27 -2 29 -11 14
-7 -12 -7 -27 0 -48 10 -28 9 -29 -21 -29 -30 0 -31 1 -26 43 9 77 76 153 156
177 50 15 56 13 38 -15z m565 7 c41 -27 139 -115 139 -124 0 -4 -6 -8 -14 -8
-7 0 -19 -7 -26 -15 -10 -12 -16 -13 -26 -4 -8 6 -12 15 -9 19 3 4 -2 11 -11
14 -15 6 -15 8 1 26 20 22 7 28 -14 8 -11 -11 -15 -10 -19 2 -7 19 -53 65 -71
71 -16 6 -6 29 12 29 7 0 24 -8 38 -18z m-51 -27 c50 -32 51 -45 3 -46 -21 0
-47 -4 -58 -9 -13 -5 1 -7 39 -5 51 2 62 0 77 -19 10 -11 18 -24 19 -27 0 -4
-23 -9 -50 -11 -28 -3 -58 -12 -68 -22 -10 -9 -26 -16 -35 -16 -19 0 -37 29
-30 48 3 7 0 11 -6 10 -6 -2 -19 9 -28 24 -15 24 -15 28 1 53 32 49 79 56 136
20z m-272 -15 c17 -11 32 -24 32 -29 0 -15 -29 -33 -45 -27 -8 3 -15 1 -15 -4
0 -18 18 -19 51 -1 37 20 60 15 86 -18 18 -24 16 -31 -10 -31 -32 0 -101 -51
-129 -95 -27 -41 -37 -40 -59 4 -21 40 -14 67 20 86 14 8 21 14 15 15 -23 0
-64 -42 -64 -65 0 -14 14 -40 30 -58 36 -41 41 -87 10 -87 -32 0 -76 27 -100
60 -28 39 -35 89 -20 135 10 31 16 36 35 33 13 -3 34 1 46 8 24 13 24 13 -8
14 -25 0 -33 4 -33 18 0 54 96 80 158 42z m514 -136 c33 -47 35 -64 9 -64 -11
0 -23 -4 -26 -10 -4 -6 6 -10 23 -10 31 0 55 -21 66 -56 5 -17 -2 -29 -31 -54
l-37 -33 -21 69 c-12 38 -34 92 -48 121 l-27 52 22 16 c29 20 38 16 70 -31z
m-128 5 c36 -28 33 -39 -11 -39 -21 0 -45 -5 -53 -10 -9 -6 5 -7 41 -3 51 5
58 3 73 -18 21 -30 20 -46 -1 -52 -14 -4 -13 -5 3 -6 38 -2 47 -63 13 -82 -12
-6 -43 -9 -70 -7 -27 1 -49 -1 -49 -5 0 -5 35 -7 77 -6 l77 4 8 -35 c13 -60 1
-100 -35 -115 -27 -12 -29 -14 -9 -15 24 0 25 -1 16 -24 -3 -9 -16 -16 -28
-15 -19 0 -19 1 4 11 l25 11 -25 6 c-18 5 -29 2 -39 -12 -12 -17 -23 -19 -98
-15 -99 5 -117 17 -83 53 20 22 32 25 86 25 44 0 67 5 78 16 9 8 16 17 16 19
0 2 -28 4 -62 4 -52 -1 -65 3 -80 21 -10 12 -18 33 -18 47 0 47 43 106 85 115
18 5 19 6 2 13 -12 5 -30 -1 -57 -19 l-40 -26 -4 22 c-18 89 -18 95 15 127 38
39 101 43 143 10z m-229 -32 c22 -31 29 -53 29 -84 -1 -24 3 -43 7 -43 11 0
29 -68 29 -111 0 -45 -45 -110 -89 -129 -23 -9 -46 -10 -84 -4 -47 8 -52 11
-50 34 l2 25 -16 -22 c-18 -26 -23 -27 -75 -13 -38 11 -52 29 -41 56 6 16 49
16 161 -2 28 -4 42 -2 42 5 0 6 -11 11 -25 11 -38 0 -79 25 -93 55 -23 50 -6
54 112 21 73 -20 76 -22 77 -49 l0 -22 11 22 c15 31 -1 48 -57 62 -48 12 -57
31 -35 72 6 10 8 19 4 19 -14 0 -44 -33 -44 -47 0 -11 -8 -13 -32 -8 -18 4
-34 9 -36 10 -2 2 2 21 8 44 18 66 95 141 145 141 12 -1 32 -18 50 -43z m-492
-50 l27 -12 -51 -55 c-41 -45 -52 -52 -60 -40 -8 11 -12 12 -16 3 -8 -21 -33
-15 -42 10 -13 33 -2 75 22 92 26 18 81 19 120 2z m142 -67 c22 -20 55 -43 73
-50 22 -8 40 -26 53 -51 l19 -39 -39 0 c-44 0 -67 -25 -58 -61 4 -16 1 -18
-21 -13 -34 8 -39 13 -44 44 l-4 25 -14 -27 c-11 -23 -18 -27 -39 -22 -30 8
-91 42 -91 52 0 4 7 16 15 26 15 19 16 19 45 -9 38 -36 40 -21 3 18 l-28 29
22 17 c14 12 32 17 48 14 14 -3 25 -1 25 5 0 22 -49 19 -71 -4 -13 -13 -31
-24 -40 -24 -11 0 -16 -5 -13 -13 2 -7 -1 -25 -9 -40 l-14 -26 -31 19 c-18 11
-32 24 -32 29 0 5 15 22 33 37 17 15 42 41 55 58 48 65 92 67 157 6z m-335
-50 c0 -5 -21 -9 -47 -8 l-48 1 45 7 c25 4 46 8 48 8 1 1 2 -2 2 -8z m1158
-78 c6 -64 -18 -117 -60 -131 -39 -14 -68 -14 -68 0 0 5 8 9 18 8 9 -1 26 -1
37 0 16 1 17 3 6 10 -8 5 -23 8 -33 6 -12 -3 -18 1 -15 8 2 6 19 15 38 18 54
12 84 62 58 99 -8 12 -9 10 -4 -7 10 -35 -3 -60 -36 -73 -37 -16 -45 -8 -51
50 -5 42 -3 47 31 71 35 26 37 26 55 9 12 -11 21 -37 24 -68z m-1280 61 c-10
-2 -26 -2 -35 0 -10 3 -2 5 17 5 19 0 27 -2 18 -5z m-65 -10 c-7 -2 -19 -2
-25 0 -7 3 -2 5 12 5 14 0 19 -2 13 -5z m-70 -16 c-41 -15 -76 -45 -68 -57 3
-6 2 -10 -3 -10 -13 0 -36 29 -30 36 10 9 103 43 118 43 8 0 1 -6 -17 -12z
m187 -286 c312 -250 568 -352 885 -352 163 0 261 20 345 70 73 44 136 106 146
146 8 33 -12 80 -56 130 -21 25 -25 32 -10 20 20 -17 22 -17 11 -2 -8 10 -29
24 -48 32 -18 8 -33 21 -33 29 0 43 197 -75 262 -158 71 -88 118 -214 133
-352 7 -63 -18 -320 -35 -359 -6 -14 -7 -8 -4 20 4 43 -15 -39 -46 -199 -23
-122 -58 -197 -102 -219 -55 -29 -178 -39 -533 -44 -290 -4 -371 -2 -550 15
-229 22 -235 24 -235 88 0 18 -4 34 -9 36 -4 2 -12 14 -16 27 -5 16 -4 21 4
17 6 -4 11 -2 11 3 0 6 -6 11 -14 11 -11 0 -13 9 -10 35 2 19 0 35 -6 35 -5 0
-7 6 -4 14 6 16 -44 28 -66 15 -11 -6 -11 -8 -2 -9 7 0 11 -4 7 -9 -3 -5 -1
-12 4 -15 5 -3 11 1 15 9 3 8 13 15 23 14 12 0 13 -2 5 -6 -10 -4 -9 -8 5 -18
16 -12 13 -14 -27 -12 -25 1 -44 5 -42 10 1 4 -3 14 -10 22 -11 12 -15 11 -27
-3 -12 -15 -12 -15 -6 7 37 123 56 423 35 562 -37 255 -163 472 -328 566 l-53
30 32 21 32 20 106 -81 c58 -45 153 -120 211 -166z m-978 219 c54 -5 110 -16
125 -24 96 -50 202 -262 223 -444 12 -110 3 -246 -19 -273 -32 -40 -288 -36
-430 7 -71 21 -110 58 -116 109 -4 34 -3 36 3 10 14 -49 31 -74 62 -90 56 -29
172 -47 313 -49 135 -1 139 0 158 23 26 32 26 174 0 291 -33 147 -41 149 -35
10 7 -140 6 -142 -73 -191 -33 -21 -49 -24 -128 -23 -82 2 -91 4 -111 27 -13
16 -24 46 -29 82 -3 31 -13 75 -21 98 l-14 42 4 -60 c6 -97 -20 -222 -42 -200
-3 2 -6 69 -7 147 -2 107 -8 162 -23 220 -37 136 -101 235 -168 260 -67 24
-44 29 176 36 30 1 99 -3 152 -8z m1257 -64 c280 -88 931 -113 931 -36 0 6 4
10 8 10 12 0 5 -113 -10 -163 -7 -23 -12 -46 -13 -52 0 -5 -5 -17 -10 -25 -5
-8 -8 -28 -7 -45 1 -16 -3 -37 -8 -45 -8 -12 -10 -10 -11 10 0 14 -6 1 -14
-30 -10 -42 -11 -58 -2 -69 9 -11 9 -13 0 -8 -6 4 -14 3 -17 -2 -4 -5 -36 -13
-72 -16 -51 -6 -68 -4 -75 6 -6 11 -9 10 -15 -4 -4 -12 -17 -17 -48 -16 -29 1
-35 3 -19 7 25 8 20 20 -15 44 -21 14 -15 16 100 22 67 4 129 12 138 17 10 7
2 8 -25 4 -45 -7 -341 12 -395 25 -24 6 1 8 83 7 64 -1 118 1 120 5 1 4 43 9
92 13 101 7 175 23 175 37 0 6 -7 7 -16 4 -42 -16 -158 -27 -229 -21 -114 9
-252 32 -243 40 2 2 44 -2 93 -10 50 -8 135 -14 190 -13 l100 1 -130 7 c-71 4
-158 13 -193 19 -34 7 -67 9 -72 6 -6 -3 -10 -51 -10 -106 0 -64 -4 -98 -10
-94 -6 3 -11 59 -11 128 l-2 122 -8 -114 c-5 -62 -11 -116 -14 -119 -3 -3 -5
49 -5 116 0 162 -18 161 -23 0 l-3 -123 -2 130 c-3 161 -22 153 -22 -9 0 -78
-3 -107 -11 -99 -6 6 -9 52 -7 121 2 60 0 108 -3 106 -4 -2 -9 2 -12 10 -3 7
-18 16 -34 20 -61 15 -255 78 -251 81 2 3 49 -9 105 -25 128 -36 299 -73 315
-67 14 5 -55 37 -81 37 -9 0 -23 5 -31 10 -10 7 12 9 70 6 47 -2 72 -2 55 0
-75 10 -188 36 -280 64 -55 17 -84 28 -65 25 19 -4 82 -15 139 -26 57 -10 153
-21 215 -23 l111 -5 -95 9 c-138 13 -283 39 -380 67 -91 26 -181 70 -188 91
-2 7 13 1 33 -13 21 -14 72 -36 114 -49z m-679 30 c89 -32 217 -161 270 -272
30 -63 70 -210 69 -254 0 -14 -9 15 -19 63 -16 75 -87 254 -97 244 -4 -5 24
-188 33 -210 4 -11 17 -29 29 -42 19 -18 24 -38 30 -109 10 -114 2 -305 -13
-333 -16 -29 -42 -19 -43 16 -1 23 -2 22 -11 -9 -5 -19 -16 -42 -24 -50 -8 -8
-24 -27 -35 -42 -11 -16 -29 -28 -40 -28 -18 0 -61 55 -73 96 -3 10 -4 -15 -2
-58 3 -48 10 -85 21 -101 33 -52 73 -46 110 16 14 23 25 35 25 25 0 -21 -40
-130 -54 -145 -12 -13 -110 -23 -151 -15 -30 5 -31 7 -40 77 l-7 50 -25 -90
c-39 -145 -80 -200 -159 -212 l-39 -5 47 30 c26 17 58 50 72 74 56 95 86 316
86 632 0 178 0 179 -35 284 -36 108 -76 182 -146 275 l-40 52 50 -53 c86 -90
157 -239 186 -390 14 -75 15 -75 10 -17 -11 123 -72 288 -135 367 -34 41 -39
57 -12 37 15 -11 15 -11 4 1 -7 8 -17 15 -22 15 -6 0 -9 3 -7 7 1 3 -8 17 -21
30 -12 14 -20 27 -18 29 3 3 -4 5 -14 6 -17 2 -15 -3 10 -24 44 -36 30 -39
-21 -5 -24 16 -55 33 -68 37 -19 6 -21 9 -10 17 23 15 277 3 329 -16z m2170
-55 c102 -32 199 -117 285 -250 88 -136 115 -238 115 -433 0 -216 -30 -379
-96 -515 -69 -145 -131 -186 -296 -197 -67 -5 -98 -4 -98 3 0 6 7 11 15 11 8
0 32 16 54 35 l38 35 100 0 c114 0 121 4 166 95 76 154 101 296 95 545 -4 157
-8 196 -28 255 -19 62 -88 191 -96 182 -7 -7 38 -164 57 -196 16 -27 22 -61
28 -145 4 -61 3 -129 -1 -151 -34 -188 -66 -301 -67 -245 -1 22 -5 19 -36 -25
-43 -60 -52 -64 -65 -30 -5 14 -19 45 -30 68 l-19 42 0 -55 c-1 -68 13 -130
31 -141 28 -18 58 -9 78 24 28 45 25 26 -5 -33 -31 -61 -47 -70 -124 -70 -51
0 -61 3 -62 18 0 9 -7 -1 -15 -23 -23 -63 -55 -125 -65 -125 -4 0 1 15 12 34
28 49 55 220 69 440 12 187 10 251 -12 393 -10 67 -36 132 -38 93 0 -8 -11 11
-24 43 -54 130 -161 269 -239 308 -21 11 -36 23 -33 26 3 3 25 -6 49 -20 25
-15 48 -23 52 -19 5 4 5 2 2 -4 -3 -6 9 -26 29 -45 19 -18 53 -62 75 -96 23
-35 43 -63 46 -63 7 0 -36 70 -68 112 -37 47 -37 58 -1 28 15 -13 1 2 -30 33
-35 35 -68 60 -87 63 -17 4 -31 11 -31 17 0 16 201 -1 270 -22z m-3230 -13
c-30 -52 -60 -153 -60 -202 0 -25 -4 -47 -8 -50 -13 -8 -3 89 15 154 8 30 25
72 39 93 30 46 40 49 14 5z m140 -4 c34 -29 74 -101 96 -173 23 -76 15 -81
-10 -6 -12 39 -28 81 -35 95 -18 35 -72 90 -88 90 -7 0 -13 5 -13 10 0 17 17
11 50 -16z m2925 -34 c10 -11 16 -20 13 -20 -3 0 -13 9 -23 20 -10 11 -16 20
-13 20 3 0 13 -9 23 -20z m632 -46 c102 -49 202 -194 237 -344 9 -36 16 -111
16 -167 0 -93 -2 -103 -21 -113 -20 -11 -20 -11 -4 14 9 14 15 37 12 53 -4 27
-4 27 -6 -4 0 -17 -5 -35 -11 -38 -6 -4 -10 18 -10 58 0 66 -41 233 -62 252
-8 7 -9 4 -3 -10 4 -11 10 -68 13 -126 3 -85 1 -111 -12 -137 -9 -18 -18 -32
-20 -32 -2 0 -3 17 -2 38 0 20 -3 38 -9 40 -5 1 -11 -2 -11 -8 -1 -5 -2 -14
-3 -19 0 -5 -19 -8 -42 -7 -30 2 -44 -2 -52 -16 -7 -10 -15 -18 -18 -18 -11 0
-29 60 -29 95 0 48 -37 182 -69 252 -39 82 -99 170 -158 228 l-47 48 129 -7
c109 -6 139 -11 182 -32z m-1040 -231 c-3 -10 -5 -2 -5 17 0 19 2 27 5 18 2
-10 2 -26 0 -35z m-3720 -1119 c-1 -1 -117 -37 -257 -79 -140 -42 -320 -96
-400 -120 -80 -24 -153 -47 -162 -50 -10 -4 -18 -3 -18 4 0 11 145 59 510 167
124 37 243 72 265 79 l40 12 6 554 c3 305 8 556 10 559 2 3 5 -249 6 -559 2
-310 2 -565 0 -567z m1943 1097 c0 -6 -4 -13 -10 -16 -5 -3 -10 1 -10 9 0 9 5
16 10 16 6 0 10 -4 10 -9z m1747 -23 c-3 -8 -6 -5 -6 6 -1 11 2 17 5 13 3 -3
4 -12 1 -19z m-3770 -46 c-23 -32 -67 -99 -97 -149 -40 -69 -60 -93 -79 -98
-14 -3 -437 -141 -938 -308 l-913 -302 0 -282 c0 -201 3 -283 11 -283 6 0 100
29 208 64 166 55 550 174 616 192 21 6 -261 -278 -293 -295 -16 -8 -17 -17
-11 -68 4 -32 7 -1121 6 -2421 -2 -2093 0 -2362 13 -2362 29 0 350 112 350
122 0 6 -7 7 -16 4 -9 -3 -27 -9 -40 -12 -13 -3 -24 -10 -24 -15 0 -5 -7 -6
-15 -3 -8 4 -15 1 -15 -6 0 -6 -4 -9 -9 -6 -5 3 -58 -10 -117 -29 -60 -19
-110 -35 -111 -35 -7 0 0 4380 6 4505 5 82 8 -179 9 -626 2 -790 15 -2037 20
-1961 3 41 14 53 28 30 4 -6 3 -8 -4 -4 -7 4 -10 -4 -10 -23 1 -20 5 -28 14
-24 8 3 11 9 8 15 -7 11 24 48 41 48 6 0 12 7 12 15 0 18 -27 15 -45 -5 -8 -8
-11 -10 -8 -3 4 6 0 13 -6 16 -10 3 -8 10 5 25 19 21 53 20 40 -2 -3 -6 3 -3
14 7 11 9 26 17 34 16 8 0 6 -4 -6 -9 -16 -6 -14 -8 12 -7 27 0 31 3 22 14 -7
7 -9 16 -5 20 3 3 6 2 6 -4 0 -12 46 -34 54 -26 10 11 7 24 -6 22 -25 -3 -38
1 -38 12 0 16 42 0 63 -23 9 -11 17 -15 17 -10 0 6 -4 14 -10 17 -14 9 -12 22
4 28 10 4 13 1 9 -9 -3 -7 0 -14 6 -14 6 0 11 6 11 14 0 8 5 18 10 21 6 4 10
3 9 -2 -1 -4 0 -11 1 -15 1 -5 3 -14 4 -20 0 -7 10 -13 21 -13 14 0 21 7 22
25 1 14 0 19 -3 13 -3 -7 -10 -13 -16 -13 -6 0 -3 9 7 20 18 20 19 79 20 1498
1 812 3 1503 3 1534 l2 57 128 41 c70 22 285 89 477 148 l350 108 3 297 c1
187 6 297 12 297 6 0 10 -109 10 -298 l0 -297 68 -52 67 -52 3 477 c1 297 6
480 12 486 7 7 10 -159 10 -487 0 -273 -3 -497 -7 -497 -3 0 -39 25 -79 55
l-72 54 -379 -115 c-208 -63 -423 -128 -477 -145 l-100 -31 122 -46 121 -47 6
-2407 c5 -1877 3 -2408 -6 -2408 -7 0 -10 -2 -7 -5 3 -3 13 -3 22 1 15 6 16
192 18 2411 l3 2406 80 23 c183 54 377 105 381 102 2 -2 -97 -33 -221 -68
l-224 -64 0 -2371 c-1 -1303 -1 -2395 -1 -2426 l0 -56 -277 -96 c-153 -52
-316 -107 -363 -123 -47 -15 -89 -29 -95 -31 -7 -2 -9 807 -7 2418 2 2305 1
2421 -15 2414 -10 -4 -115 -40 -233 -80 -118 -40 -285 -98 -371 -128 l-156
-55 -7 121 c-9 167 -5 659 4 582 4 -33 8 -201 9 -372 1 -283 6 -346 25 -298 3
8 1 15 -4 15 -6 0 -9 97 -8 258 l2 257 6 -250 c3 -137 7 -239 8 -226 1 19 5
22 13 14 12 -12 59 43 158 183 l43 62 4 290 4 290 -107 66 c-66 40 -101 67
-92 70 7 3 86 30 174 60 88 30 250 87 360 126 110 39 346 121 525 181 564 192
1205 407 1212 408 5 1 -11 -25 -35 -57z m-108 43 c-11 -11 -1231 -427 -1236
-421 -2 2 85 34 194 71 1087 374 1055 363 1042 350z m3898 -27 c-3 -8 -6 -5
-6 6 -1 11 2 17 5 13 3 -3 4 -12 1 -19z m580 -10 c-3 -8 -6 -5 -6 6 -1 11 2
17 5 13 3 -3 4 -12 1 -19z m-2973 -3 c3 -8 1 -15 -4 -15 -6 0 -10 7 -10 15 0
8 2 15 4 15 2 0 6 -7 10 -15z m2983 -47 c-3 -8 -6 -5 -6 6 -1 11 2 17 5 13 3
-3 4 -12 1 -19z m-1821 -323 c-11 -303 -82 -489 -211 -546 -49 -22 -223 -35
-280 -21 -22 6 -32 10 -22 11 11 1 33 11 50 24 26 18 50 23 132 28 l100 5 -92
2 c-60 1 -93 6 -93 13 0 12 172 7 222 -6 34 -9 67 24 108 109 52 110 73 244
74 466 1 149 3 180 9 130 4 -36 6 -132 3 -215z m-1162 88 c33 -40 88 -60 195
-73 61 -7 88 -7 98 1 10 9 13 7 13 -6 0 -15 -9 -16 -92 -10 -104 8 -161 25
-197 58 -31 29 -81 107 -81 126 0 9 9 -2 19 -24 10 -22 30 -54 45 -72z m2973
-60 c-2 -16 -4 -3 -4 27 0 30 2 43 4 28 2 -16 2 -40 0 -55z m596 0 c-7 -2 -19
-2 -25 0 -7 3 -2 5 12 5 14 0 19 -2 13 -5z m-3576 -117 c51 -33 114 -48 193
-44 57 3 66 6 77 28 7 14 13 18 13 10 0 -9 -7 -26 -17 -39 -15 -23 -20 -23
-97 -18 -100 8 -169 40 -226 104 -22 25 -40 50 -40 56 0 5 13 -9 30 -31 16
-23 47 -53 67 -66z m2970 2 c-2 -13 -4 -3 -4 22 0 25 2 35 4 23 2 -13 2 -33 0
-45z m-5779 47 c-9 -9 -260 -96 -265 -92 -3 4 243 94 261 96 5 1 7 -1 4 -4z
m6332 -20 c-9 -11 -29 -14 -69 -13 l-56 2 58 3 c40 3 60 9 64 19 3 8 8 13 11
10 3 -3 -1 -12 -8 -21z m-3675 -15 c-9 -29 22 -87 69 -125 65 -53 121 -75 198
-75 l67 0 31 55 c42 74 49 70 9 -5 -29 -56 -34 -60 -75 -66 -47 -7 -117 7
-167 32 -41 22 -116 92 -134 127 -13 26 -11 77 3 77 3 0 3 -9 -1 -20z m-96
-146 c15 -60 35 -125 43 -144 33 -76 105 -134 188 -151 29 -5 23 -7 -30 -8
-37 0 -71 -6 -78 -13 -6 -6 -13 -10 -16 -7 -18 19 -94 226 -116 316 -16 62
-32 118 -36 125 -5 10 -4 10 5 2 7 -6 25 -60 40 -120z m-34 20 c4 -31 4 -58 2
-60 -3 -3 -8 19 -12 48 -4 29 -11 64 -16 78 -8 23 -8 23 5 7 8 -10 17 -43 21
-73z m612 64 c-3 -8 -6 -5 -6 6 -1 11 2 17 5 13 3 -3 4 -12 1 -19z m-633 -87
c9 -50 28 -122 41 -162 30 -87 41 -178 55 -449 6 -113 18 -256 26 -318 15
-104 15 -115 0 -131 -18 -20 -12 -31 17 -31 11 0 18 -2 15 -5 -5 -5 -175 9
-250 21 -36 5 -36 6 -47 67 -6 34 -18 148 -27 252 -19 222 -15 400 11 460 12
29 16 66 16 130 -2 82 1 96 28 150 33 64 77 119 91 110 4 -3 15 -45 24 -94z
m3801 83 c-36 -29 -87 -46 -98 -35 -8 8 -4 11 14 11 13 0 38 9 54 19 36 24 58
27 30 5z m-6587 1 c-8 -9 -271 -95 -275 -91 -4 4 252 94 271 95 5 1 7 -1 4 -4z
m6049 -27 c-3 -7 -5 -2 -5 12 0 14 2 19 5 13 2 -7 2 -19 0 -25z m620 -56 c6
-27 -3 -115 -18 -176 -9 -35 -16 -43 -45 -52 -39 -13 -38 -16 -23 75 5 35 18
75 28 88 11 13 17 32 14 43 -4 14 0 20 11 20 20 0 20 3 -4 42 -11 18 -20 37
-20 42 0 16 50 -57 57 -82z m-3157 -143 c40 -79 77 -127 115 -151 16 -10 24
-18 17 -18 -7 0 -32 18 -56 40 -48 44 -111 157 -145 257 -31 92 -25 100 9 11
15 -42 42 -105 60 -139z m-539 38 c47 -40 114 -67 170 -67 32 0 44 7 85 53 26
28 41 41 34 28 -21 -40 -101 -121 -119 -120 -10 0 -7 4 9 11 23 10 20 12 -35
18 -93 10 -147 45 -206 134 -21 32 -39 63 -39 70 0 6 13 -12 30 -40 16 -29 48
-68 71 -87z m3066 111 c-3 -8 -6 -5 -6 6 -1 11 2 17 5 13 3 -3 4 -12 1 -19z
m-120 -30 c-3 -7 -5 -2 -5 12 0 14 2 19 5 13 2 -7 2 -19 0 -25z m697 -23 c-4
-9 -32 -23 -64 -32 l-57 -15 -18 -94 -19 -93 -59 -21 c-54 -18 -58 -18 -45 -2
24 26 53 90 79 170 20 64 26 72 48 73 15 0 46 6 71 13 62 18 70 18 64 1z m814
8 c18 -4 21 -8 10 -15 -9 -7 -7 -8 8 -3 13 3 47 -6 85 -23 35 -16 187 -73 337
-127 150 -54 269 -101 264 -104 -12 -9 -34 -505 -28 -646 2 -68 1 -96 -3 -65
-5 42 -8 17 -11 -107 -3 -89 -8 -164 -11 -167 -5 -5 -318 110 -636 233 l-83
32 0 130 c0 119 -1 130 -17 125 -53 -16 -453 -138 -480 -147 l-33 -11 0 -420
0 -420 151 -159 c83 -87 155 -157 159 -154 7 4 795 -786 924 -927 27 -29 -156
154 -408 407 -251 253 -456 456 -456 452 0 -4 177 -191 393 -415 216 -224 415
-431 441 -459 l48 -53 -12 -897 c-7 -494 -15 -1037 -19 -1207 l-6 -310 -170
-44 c-149 -39 -174 -43 -200 -32 -80 32 -1360 460 -1368 457 -14 -4 673 -243
1288 -448 l100 -33 172 44 c95 24 177 47 183 50 5 3 15 408 25 1005 18 1171
21 1247 23 705 2 -608 -15 -1731 -28 -1744 -5 -5 -29 -11 -52 -12 -74 -3 -75
-3 -58 -14 11 -7 5 -8 -20 -4 -28 4 -32 3 -20 -6 12 -9 11 -10 -7 -5 -29 8
-159 -25 -141 -36 8 -6 -1 -7 -22 -3 -23 4 -30 2 -22 -4 21 -14 -77 -6 -123
12 -53 19 -30 20 25 1 24 -8 45 -14 47 -12 4 4 -791 276 -1179 404 l-238 78 0
688 c0 462 3 687 10 687 7 0 10 -74 9 -216 -1 -118 2 -218 5 -221 3 -4 6 87 6
201 l0 208 23 -6 c12 -3 123 -29 247 -57 124 -28 231 -56 238 -62 9 -7 12 -98
12 -393 l0 -383 83 -25 c45 -14 162 -50 260 -79 l177 -54 0 702 0 701 -252
261 c-139 144 -373 385 -520 536 l-268 274 0 978 c0 550 3 982 8 987 5 5 142
53 305 107 163 54 293 102 289 106 -4 4 4 4 17 0 17 -5 21 -4 16 5 -5 9 -1 10
15 5 16 -5 20 -4 15 5 -5 9 -1 10 15 5 16 -5 20 -4 15 5 -5 9 -1 10 15 5 17
-5 21 -4 15 6 -6 9 -2 11 13 7 14 -4 20 -2 15 5 -4 6 2 8 15 5 12 -4 20 -3 18
0 -3 6 301 110 324 111 3 1 16 -2 28 -6z m-4852 -19 c-25 -64 -26 -157 -6
-404 23 -286 48 -554 55 -587 3 -13 1 -23 -3 -23 -10 0 -11 8 -47 380 -37 370
-42 521 -21 593 9 31 19 57 22 57 4 0 3 -7 0 -16z m3331 -31 c-3 -10 -5 -4 -5
12 0 17 2 24 5 18 2 -7 2 -21 0 -30z m-2840 -23 c-11 -28 -26 -38 -39 -24 -6
5 32 51 44 53 3 1 1 -12 -5 -29z m1298 -10 c3 -5 1 -10 -4 -10 -6 0 -11 5 -11
10 0 6 2 10 4 10 3 0 8 -4 11 -10z m1531 -31 c-10 -65 -45 -136 -82 -169 -38
-33 -85 -49 -164 -56 -47 -4 -42 -1 32 15 48 11 102 29 119 42 36 25 75 103
85 166 3 24 9 43 11 43 3 0 3 -19 -1 -41z m-2921 11 c3 -6 23 -19 43 -30 31
-16 33 -19 15 -20 -15 0 -23 -6 -24 -17 0 -11 -3 -13 -6 -5 -2 6 -8 10 -13 7
-4 -2 -16 5 -26 18 l-19 22 23 -19 c28 -24 29 -7 1 28 -11 14 -16 26 -10 26 5
0 13 -5 16 -10z m25 -90 c18 -7 55 -11 90 -8 39 3 57 1 50 -6 -16 -16 -122
-11 -157 7 -18 10 -43 32 -57 50 -37 49 -32 53 9 8 19 -21 49 -44 65 -51z
m1380 80 c0 -5 -2 -10 -4 -10 -3 0 -8 5 -11 10 -3 6 -1 10 4 10 6 0 11 -4 11
-10z m1561 -93 c-10 -9 -11 -8 -5 6 3 10 9 15 12 12 3 -3 0 -11 -7 -18z
m-2640 -49 c11 -28 8 -69 -24 -337 -21 -168 -38 -340 -38 -381 -1 -74 -1 -75
-11 -30 -8 32 -7 81 2 168 6 68 10 125 7 128 -5 6 -25 -158 -30 -253 -2 -34 0
-60 4 -58 4 3 9 -8 11 -24 3 -23 0 -31 -15 -35 -19 -5 -20 -1 -14 147 3 84 13
206 22 272 19 146 33 345 23 345 -4 0 -42 -11 -86 -25 l-79 -25 -12 -245 c-7
-135 -10 -283 -6 -329 6 -74 5 -83 -10 -83 -26 0 -45 39 -54 109 -8 59 -9 57
-10 -50 -1 -74 -5 -112 -11 -110 -14 4 -14 743 0 768 7 13 27 18 92 23 87 6
173 22 197 37 13 7 13 11 0 26 -13 16 -12 16 7 6 12 -6 27 -26 35 -44z m2655
-10 c-19 -26 -22 -7 -4 25 7 13 13 17 15 10 3 -7 -3 -23 -11 -35z m-1664 -32
c81 -27 202 -43 413 -55 99 -6 118 -8 65 -9 -109 -3 -332 16 -414 34 -80 18
-186 62 -186 77 0 5 11 2 24 -7 14 -9 58 -27 98 -40z m-209 -62 c10 -19 38
-54 63 -77 24 -22 43 -46 40 -53 -2 -6 1 -17 7 -24 7 -7 -3 -4 -21 6 -49 28
-67 52 -22 30 32 -16 31 -14 -17 31 -29 26 -60 65 -68 86 -19 47 -4 49 18 1z
m-45 1 c-3 -3 -9 2 -12 12 -6 14 -5 15 5 6 7 -7 10 -15 7 -18z m1929 19 c-3
-3 -12 -4 -19 -1 -8 3 -5 6 6 6 11 1 17 -2 13 -5z m-399 -11 c-16 -2 -40 -2
-55 0 -16 2 -3 4 27 4 30 0 43 -2 28 -4z m-176 -10 c-40 -2 -103 -2 -140 0
-37 2 -4 3 73 3 77 0 107 -2 67 -3z m-1311 -70 c13 -16 12 -17 -3 -4 -17 13
-22 21 -14 21 2 0 10 -8 17 -17z m1998 -3 c0 -8 2 -1047 5 -2307 4 -1687 2
-2293 -6 -2293 -10 0 -125 31 -340 90 l-38 11 0 1017 0 1017 -86 160 c-47 88
-113 212 -147 275 l-62 114 -6 -104 c-3 -58 -4 -621 -1 -1252 5 -985 3 -1148
-9 -1148 -8 1 -102 18 -209 38 l-195 37 -3 2013 c-3 1975 -2 2012 16 2012 11
0 39 7 63 16 24 9 63 22 86 30 l43 13 97 -202 c174 -360 404 -819 409 -815 2
3 -98 211 -222 464 -124 252 -237 483 -250 513 -24 53 -24 53 -61 47 l-38 -5
35 13 c31 12 37 12 48 -3 8 -9 92 -173 187 -366 95 -192 200 -402 233 -465
l61 -115 -2 555 c-2 548 -2 555 18 557 56 8 125 27 125 35 0 4 3 7 8 7 4 -1 9
0 12 1 3 1 14 3 25 5 54 8 167 43 154 47 -8 3 1 5 18 4 22 -1 33 -6 32 -16z
m-6644 -9 c3 -5 2 -12 -3 -15 -5 -3 -9 1 -9 9 0 17 3 19 12 6z m5653 -5 l342
1 0 -59 c0 -52 -20 -128 -34 -128 -3 0 2 16 10 35 7 19 14 56 14 82 l0 48
-352 0 c-194 0 -379 4 -410 8 l-58 8 -2 -43 -1 -43 -4 41 c-3 33 -9 43 -26 48
-55 15 -56 13 -59 -91 l-3 -98 -5 103 -5 103 125 -8 c69 -4 279 -8 468 -7z
m417 -53 c-9 -73 -29 -117 -63 -139 l-27 -16 28 27 c34 33 42 53 51 128 4 31
10 57 12 57 3 0 2 -26 -1 -57z m-395 7 c0 -8 -24 -11 -72 -10 -100 2 -108 1
-108 -9 0 -13 43 -22 51 -10 5 8 9 8 13 0 4 -6 12 -9 17 -6 14 9 11 -11 -4
-23 -10 -9 -19 -7 -36 5 -19 13 -25 13 -32 2 -5 -8 -9 -9 -10 -4 0 6 -5 1 -10
-10 -7 -15 -8 -11 -5 18 l5 37 -105 0 c-57 0 -104 4 -104 8 0 4 90 9 200 11
144 2 200 -1 200 -9z m129 6 c-10 -8 -89 -13 -83 -5 3 5 24 9 46 9 23 0 39 -2
37 -4z m-5812 -48 c-3 -8 -6 -5 -6 6 -1 11 2 17 5 13 3 -3 4 -12 1 -19z m5954
-1 c-13 -13 -26 -3 -16 12 3 6 11 8 17 5 6 -4 6 -10 -1 -17z m-541 2 c0 -8 4
-8 14 0 14 12 46 5 46 -10 0 -5 -11 -9 -24 -9 -13 0 -32 -3 -42 -7 -11 -4 -15
-2 -11 4 4 6 -10 10 -36 11 -64 0 -75 4 -42 12 47 12 95 11 95 -1z m216 -9
c12 0 12 -4 2 -20 -12 -18 -13 -19 -20 -2 -3 9 -7 24 -7 32 1 10 2 11 6 3 2
-7 11 -13 19 -13z m96 -15 c5 -25 -6 -35 -33 -28 -15 4 -15 8 -2 34 16 33 28
31 35 -6z m183 19 c-11 -8 -28 -13 -39 -10 -10 3 -27 -1 -38 -7 -16 -9 -22 -9
-25 1 -3 6 -21 12 -41 13 -69 1 -5 14 80 16 75 1 81 0 63 -13z m-5908 -36 c-3
-8 -6 -5 -6 6 -1 11 2 17 5 13 3 -3 4 -12 1 -19z m5343 12 c0 -5 -4 -10 -10
-10 -5 0 -10 5 -10 10 0 6 5 10 10 10 6 0 10 -4 10 -10z m444 -11 c-9 -15 -34
-10 -28 5 3 8 12 12 20 9 8 -3 11 -9 8 -14z m-667 -66 c-2 -16 -4 -5 -4 22 0
28 2 40 4 28 2 -13 2 -35 0 -50z m60 -15 c-2 -18 -4 -6 -4 27 0 33 2 48 4 33
2 -15 2 -42 0 -60z m423 70 c0 -4 -12 -8 -26 -8 -14 0 -23 4 -20 8 2 4 14 8
25 8 12 0 21 -4 21 -8z m-875 -157 c77 -11 194 -25 260 -31 66 -6 142 -13 169
-17 l48 -6 -183 -67 c-101 -37 -230 -85 -286 -107 l-102 -41 -30 78 c-31 81
-71 206 -71 221 0 4 12 4 28 -1 15 -5 90 -18 167 -29z m622 -2036 c-1 -1081 1
-1965 5 -1965 5 0 9 613 11 1363 l2 1362 3 -1367 2 -1368 -23 0 c-22 0 -260
32 -340 46 l-38 7 3 568 c1 313 6 569 10 569 4 0 9 -69 11 -152 l3 -153 2 187
2 186 -47 6 c-27 3 -79 8 -118 11 -38 3 -87 8 -107 11 l-38 6 2 -534 c1 -293
5 -477 8 -408 l6 125 2 -120 c1 -76 -2 -125 -9 -132 -7 -7 -8 -28 -4 -58 6
-34 10 -43 17 -34 8 11 9 11 5 -1 -3 -11 -15 -14 -43 -12 -56 4 -306 41 -311
46 -2 2 -5 768 -5 1701 l-1 1698 254 100 c348 137 712 275 726 276 9 1 11
-471 10 -1964z m-3363 1866 c96 -22 193 -45 215 -51 l40 -11 3 -367 c2 -202 3
-1151 3 -2109 0 -1153 3 -1745 10 -1748 6 -2 -1 -2 -15 0 -33 6 -453 -98 -443
-109 4 -5 1 -7 -7 -4 -13 4 -15 94 -16 724 -1 619 0 673 7 389 5 -181 10 -377
11 -435 2 -58 1 765 0 1828 -3 1329 -1 1932 6 1932 6 0 90 -18 186 -39z
m-1967 -113 c-3 -7 -5 -2 -5 12 0 14 2 19 5 13 2 -7 2 -19 0 -25z m2566 -34
l147 -36 0 -1969 c0 -1083 -1 -1969 -2 -1969 -77 -15 -263 -47 -264 -46 -1 0
-4 900 -6 1999 -3 1098 -8 2001 -12 2005 -8 7 2 -4009 9 -4016 4 -4 235 35
268 44 16 5 17 100 19 1787 2 980 5 1548 8 1262 3 -286 6 -1090 8 -1786 l2
-1267 -22 -5 c-13 -3 -84 -17 -158 -32 -74 -14 -136 -28 -139 -30 -7 -8 8 -6
154 20 148 26 161 28 154 20 -9 -9 -301 -56 -315 -51 -12 5 -14 319 -14 2056
0 1127 3 2050 8 2050 4 0 73 -16 155 -36z m422 -19 c44 -3 249 -26 455 -50
206 -24 440 -51 520 -59 80 -9 164 -19 188 -22 l42 -5 0 -281 0 -280 -47 6
c-87 11 -386 37 -388 34 -2 -2 0 -739 4 -1638 l6 -1635 5 940 5 940 3 -962 2
-963 -102 -260 c-55 -143 -104 -260 -108 -260 -5 0 -56 109 -114 243 -59 133
-111 250 -116 259 -6 11 -9 212 -8 525 3 498 3 502 8 178 3 -181 6 348 8 1177
2 1427 1 1507 -15 1512 -10 3 -108 15 -218 26 -110 11 -212 23 -227 26 l-28 6
0 272 c0 150 3 275 6 279 3 3 13 4 22 2 10 -1 53 -6 97 -10z m1332 -1872 c-1
-54 -3 -10 -3 97 0 107 2 151 3 98 2 -54 2 -142 0 -195z m4340 -295 c-2 -24
-4 -5 -4 42 0 47 2 66 4 43 2 -24 2 -62 0 -85z m-4340 -130 c-2 -13 -4 -5 -4
17 -1 22 1 32 4 23 2 -10 2 -28 0 -40z m-3610 -230 c-2 -35 -3 -9 -3 57 0 66
1 94 3 63 2 -32 2 -86 0 -120z m3610 -725 c-1 -158 -2 -31 -2 282 0 314 1 443
2 288 2 -155 2 -411 0 -570z m606 820 c37 -4 47 -9 47 -24 0 -11 -4 -19 -10
-19 -5 0 -10 6 -10 14 0 11 -21 16 -77 21 -43 4 -103 11 -133 16 -43 6 -35 7
40 3 52 -3 116 -8 143 -11z m-3893 -13 c0 -5 -5 -10 -11 -10 -5 0 -7 5 -4 10
3 6 8 10 11 10 2 0 4 -4 4 -10z m59 -27 c2 -2 -5 -3 -16 -3 -11 0 -20 7 -20
15 0 12 3 12 16 3 9 -7 18 -14 20 -15z m41 3 c0 -2 -7 -9 -15 -16 -13 -11 -14
-10 -9 4 5 14 24 23 24 12z m-86 -38 c-3 -4 -11 -5 -19 -1 -21 7 -19 12 4 10
11 0 18 -5 15 -9z m5193 -1000 c-1 -189 -2 -37 -2 337 0 374 1 528 2 343 2
-185 2 -491 0 -680z m-5307 976 c0 -2 -7 -4 -15 -4 -8 0 -15 4 -15 10 0 5 7 7
15 4 8 -4 15 -8 15 -10z m-113 -56 c-3 -7 -5 -2 -5 12 0 14 2 19 5 13 2 -7 2
-19 0 -25z m680 -1366 c-1 -240 -2 -41 -2 443 0 484 1 681 2 437 2 -244 2
-640 0 -880z m5603 1240 c118 -27 230 -53 248 -57 l32 -7 -2 -146 -2 -147 -3
142 c-3 138 -4 143 -26 148 -289 65 -501 116 -506 121 -8 9 1 7 259 -54z
m-2403 -74 c-2 -24 -4 -5 -4 42 0 47 2 66 4 43 2 -24 2 -62 0 -85z m-3990 70
c-3 -8 -6 -5 -6 6 -1 11 2 17 5 13 3 -3 4 -12 1 -19z m0 -1471 c-1 -265 -2
-48 -2 483 0 531 1 748 2 482 2 -265 2 -699 0 -965z m5260 1211 c-3 -8 -6 -5
-6 6 -1 11 2 17 5 13 3 -3 4 -12 1 -19z m690 -410 c-1 -79 -3 -17 -3 137 0
154 2 218 3 143 2 -75 2 -201 0 -280z m-690 -200 c-1 -112 -2 -23 -2 197 0
220 1 311 2 203 2 -108 2 -288 0 -400z m-3720 -251 c-1 -84 -3 -12 -3 158 0
171 2 239 3 152 2 -87 2 -227 0 -310z m140 -69 c-1 -90 -3 -17 -3 162 0 179 2
252 3 163 2 -90 2 -236 0 -325z m5000 360 c-2 -13 -4 -5 -4 17 -1 22 1 32 4
23 2 -10 2 -28 0 -40z m-2954 5 c-7 -2 -21 -2 -30 0 -10 3 -4 5 12 5 17 0 24
-2 18 -5z m60 -10 c-7 -2 -19 -2 -25 0 -7 3 -2 5 12 5 14 0 19 -2 13 -5z
m2164 -90 c-3 -10 -5 -2 -5 17 0 19 2 27 5 18 2 -10 2 -26 0 -35z m960 11 c-3
-3 -12 -4 -19 -1 -8 3 -5 6 6 6 11 1 17 -2 13 -5z m130 -40 c-3 -3 -12 -4 -19
-1 -8 3 -5 6 6 6 11 1 17 -2 13 -5z m-4980 -251 c-1 -43 -3 -10 -3 72 0 83 2
118 3 78 2 -40 2 -107 0 -150z m3890 185 c-3 -8 -6 -5 -6 6 -1 11 2 17 5 13 3
-3 4 -12 1 -19z m0 -40 c-3 -8 -6 -5 -6 6 -1 11 2 17 5 13 3 -3 4 -12 1 -19z
m0 -160 c-2 -29 -3 -8 -3 47 0 55 1 79 3 53 2 -26 2 -71 0 -100z"/>
<path d="M6277 9113 c-11 -10 -8 -63 3 -63 6 0 8 11 4 26 -4 17 -2 29 7 35 8
5 9 9 3 9 -6 0 -14 -3 -17 -7z"/>
<path d="M5910 8990 c-19 -16 -31 -30 -26 -30 5 0 17 6 25 14 9 8 30 22 46 30
23 12 26 16 10 16 -11 0 -36 -14 -55 -30z"/>
<path d="M6428 9013 c7 -3 16 -2 19 1 4 3 -2 6 -13 5 -11 0 -14 -3 -6 -6z"/>
<path d="M6720 8865 c-8 -9 -8 -15 -2 -15 12 0 26 19 19 26 -2 2 -10 -2 -17
-11z"/>
<path d="M6618 8473 c7 -3 16 -2 19 1 4 3 -2 6 -13 5 -11 0 -14 -3 -6 -6z"/>
<path d="M6350 8824 c0 -17 17 -36 24 -26 3 5 -1 15 -9 22 -8 7 -15 9 -15 4z"/>
<path d="M5825 8760 c-3 -5 3 -10 14 -10 11 0 23 5 26 10 3 6 -3 10 -14 10
-11 0 -23 -4 -26 -10z"/>
<path d="M6026 8635 c-18 -13 -15 -35 5 -35 6 0 7 5 4 11 -4 6 1 17 11 24 11
8 15 14 9 14 -5 0 -18 -6 -29 -14z"/>
<path d="M7013 8311 c18 -26 34 -47 36 -45 6 5 -49 94 -59 94 -5 0 6 -22 23
-49z"/>
<path d="M6874 7929 c-119 -54 -395 -72 -563 -35 -91 20 -108 15 -92 -27 9
-22 21 -28 88 -43 141 -32 415 -20 537 22 40 15 55 29 81 77 19 33 9 34 -51 6z
m-1 -49 c-47 -38 -156 -55 -348 -55 -183 0 -239 9 -266 41 -20 24 -3 27 65 10
99 -25 335 -23 455 3 52 12 96 23 99 26 3 3 8 2 11 -1 3 -3 -4 -14 -16 -24z"/>
<path d="M5935 7884 c-43 -13 -86 -31 -94 -39 -12 -12 -16 -59 -19 -257 -4
-224 -3 -241 12 -226 14 14 16 47 16 238 l0 221 33 13 c17 8 64 22 103 32 l71
18 91 -60 c50 -32 151 -96 225 -141 l135 -83 7 -122 c4 -68 9 -134 11 -148 2
-14 6 -45 8 -69 5 -41 12 -59 20 -50 8 9 16 355 9 365 -4 6 -116 84 -249 173
-181 121 -248 161 -270 160 -16 -1 -65 -12 -109 -25z"/>
<path d="M6985 7829 c-76 -52 -292 -212 -330 -244 -24 -20 -32 -52 -34 -125
-2 -95 14 -74 22 29 4 53 11 79 24 92 10 9 104 74 208 143 l190 126 70 -2 70
-3 -2 -100 -1 -100 8 80 c4 44 11 92 15 107 9 33 -8 43 -90 52 l-60 6 -90 -61z"/>
<path d="M7191 7554 c0 -11 3 -14 6 -6 3 7 2 16 -1 19 -3 4 -6 -2 -5 -13z"/>
<path d="M5650 7440 c0 -5 5 -10 11 -10 5 0 7 5 4 10 -3 6 -8 10 -11 10 -2 0
-4 -4 -4 -10z"/>
<path d="M5770 7370 c0 -5 5 -10 11 -10 5 0 7 5 4 10 -3 6 -8 10 -11 10 -2 0
-4 -4 -4 -10z"/>
<path d="M6616 7308 c-14 -68 -14 -98 -2 -98 9 0 14 18 15 60 1 61 -5 78 -13
38z"/>
<path d="M5963 7243 c-56 -11 -12 -21 122 -27 170 -8 222 4 93 22 -81 12 -170
14 -215 5z"/>
<path d="M7026 7201 c-11 -4 -20 -15 -22 -25 -2 -15 4 -16 44 -10 26 4 49 8
50 10 10 8 -56 30 -72 25z"/>
<path d="M5919 7184 c-11 -14 -9 -15 16 -12 16 1 30 9 33 16 6 18 -33 15 -49
-4z"/>
<path d="M4440 8513 c30 -32 56 -60 58 -63 3 -3 1 2 -4 11 -12 22 -93 109
-101 109 -3 0 18 -26 47 -57z"/>
<path d="M4690 8120 c0 -17 17 -47 23 -40 2 3 -2 16 -10 30 -7 14 -13 18 -13
10z"/>
<path d="M6849 8433 c-13 -16 -12 -17 4 -4 9 7 17 15 17 17 0 8 -8 3 -21 -13z"/>
<path d="M6698 8413 c7 -3 16 -2 19 1 4 3 -2 6 -13 5 -11 0 -14 -3 -6 -6z"/>
<path d="M6790 8249 c-19 -11 -29 -19 -22 -19 15 0 72 28 72 35 0 8 -13 4 -50
-16z"/>
<path d="M5202 7485 c-7 -43 -10 -80 -8 -82 6 -6 29 134 24 148 -2 7 -9 -23
-16 -66z"/>
<path d="M5403 7391 c0 -11 5 -17 9 -15 11 7 10 34 -1 34 -6 0 -9 -9 -8 -19z"/>
<path d="M5181 7383 c-1 -6 -4 -20 -7 -30 -5 -17 -5 -17 6 0 6 10 9 23 6 30
-3 9 -5 9 -5 0z"/>
<path d="M5150 7293 c0 -6 -16 -35 -36 -64 -23 -35 -28 -47 -14 -34 26 23 64
94 56 103 -3 3 -6 1 -6 -5z"/>
<path d="M7488 7163 c17 -2 47 -2 65 0 17 2 3 4 -33 4 -36 0 -50 -2 -32 -4z"/>
<path d="M1375 6547 c-274 -87 -373 -122 -368 -130 3 -6 1 -7 -5 -3 -16 10
-63 -4 -55 -17 3 -5 2 -7 -4 -4 -13 8 -93 -23 -93 -36 0 -5 -7 -7 -15 -3 -14
5 -51 -22 -42 -31 3 -2 65 19 138 46 74 27 220 80 324 117 105 37 194 71 200
76 14 12 -2 9 -80 -15z"/>
<path d="M1860 3800 c0 -5 5 -10 10 -10 6 0 10 5 10 10 0 6 -4 10 -10 10 -5 0
-10 -4 -10 -10z"/>
<path d="M1707 3749 c-5 -17 -2 -20 13 -16 11 3 21 0 23 -6 2 -6 6 -3 10 7 4
9 3 15 -2 11 -5 -3 -16 1 -24 10 -13 13 -15 12 -20 -6z"/>
<path d="M1764 3743 c3 -25 8 -29 34 -24 5 0 9 8 9 16 0 12 -3 12 -15 2 -13
-10 -14 -8 -8 11 5 16 3 22 -8 22 -10 0 -14 -8 -12 -27z"/>
<path d="M1825 3760 c3 -5 10 -10 16 -10 5 0 9 5 9 10 0 6 -7 10 -16 10 -8 0
-12 -4 -9 -10z"/>
<path d="M1830 3731 c0 -4 11 -8 25 -9 14 -1 25 2 25 6 0 4 -11 8 -25 8 -14 1
-25 -1 -25 -5z"/>
<path d="M1665 3720 c-3 -5 -1 -10 6 -10 8 0 8 -4 -1 -15 -10 -12 -10 -15 2
-15 7 0 15 11 16 25 2 25 -11 34 -23 15z"/>
<path d="M1726 3702 c6 -4 14 -14 17 -22 4 -10 6 -8 6 8 1 15 -5 22 -16 22
-11 0 -14 -3 -7 -8z"/>
<path d="M2210 1990 c-18 -12 -2 -12 25 0 13 6 15 9 5 9 -8 0 -22 -4 -30 -9z"/>
<path d="M2040 1965 c-19 -7 -28 -13 -20 -13 8 0 31 6 50 13 19 7 28 13 20 13
-8 0 -31 -6 -50 -13z"/>
<path d="M1995 1910 c3 -5 8 -10 11 -10 2 0 4 5 4 10 0 6 -5 10 -11 10 -5 0
-7 -4 -4 -10z"/>
<path d="M1858 1903 c7 -3 16 -2 19 1 4 3 -2 6 -13 5 -11 0 -14 -3 -6 -6z"/>
<path d="M1935 1890 c3 -5 8 -10 11 -10 2 0 4 5 4 10 0 6 -5 10 -11 10 -5 0
-7 -4 -4 -10z"/>
<path d="M8570 7305 c-113 -41 -201 -74 -196 -74 5 -1 91 26 193 59 101 33
193 60 204 60 11 0 79 -23 152 -51 73 -28 199 -76 281 -106 83 -30 156 -57
163 -62 15 -8 -108 -111 -133 -111 -14 0 -324 121 -454 178 l-46 19 -429 -142
-430 -142 -43 29 c-24 17 -46 28 -48 25 -3 -2 16 -18 41 -33 l45 -29 0 -833 0
-832 108 -113 c59 -61 168 -177 243 -257 74 -80 266 -285 427 -457 l292 -311
0 -162 c0 -106 3 -159 10 -155 6 3 17 -1 25 -9 16 -15 49 -11 39 5 -3 5 7 4
22 -1 29 -11 40 -8 30 9 -4 6 -13 8 -20 5 -7 -3 -19 3 -27 13 -12 16 -12 17 1
7 23 -16 60 -15 53 2 -10 26 13 15 28 -13 17 -34 30 -44 47 -38 7 3 10 0 7 -5
-3 -6 1 -10 10 -10 9 0 13 5 10 10 -9 15 2 12 32 -7 15 -10 24 -13 20 -7 -4 7
0 14 8 18 8 3 15 1 15 -4 0 -6 6 -9 13 -7 6 1 11 -5 9 -13 -1 -8 12 1 30 20
17 19 29 27 25 18 -3 -10 -2 -20 3 -23 20 -12 28 86 30 367 l1 206 -483 489
c-266 268 -553 559 -636 646 l-152 158 2 506 3 506 425 142 c234 78 433 146
443 150 16 7 17 -6 17 -186 l0 -194 98 -37 c96 -37 100 -40 197 -140 l100
-103 7 60 c6 52 27 796 23 803 -4 5 -586 222 -607 226 -13 2 -115 -29 -228
-69z m575 -3403 c-3 -3 -11 0 -18 7 -9 10 -8 11 6 5 10 -3 15 -9 12 -12z m81
-30 c-8 -7 -46 19 -41 28 3 5 14 2 25 -7 11 -9 18 -19 16 -21z m108 20 c3 -5
-1 -9 -9 -9 -8 0 -15 4 -15 9 0 4 4 8 9 8 6 0 12 -4 15 -8z m-120 -31 c3 -5
-1 -11 -9 -15 -9 -3 -15 0 -15 9 0 16 16 20 24 6z m-64 -44 c0 -5 -4 -6 -9 -3
-5 4 -12 0 -14 -6 -3 -7 -6 2 -6 21 -1 33 0 34 14 15 8 -10 15 -23 15 -27z
m140 33 c8 -5 12 -11 10 -14 -3 -2 -14 2 -24 10 -22 15 -10 19 14 4z m50 -10
c0 -5 -5 -10 -11 -10 -5 0 -7 5 -4 10 3 6 8 10 11 10 2 0 4 -4 4 -10z m-350
-16 c0 -2 -9 -4 -20 -4 -11 0 -20 4 -20 9 0 5 9 7 20 4 11 -3 20 -7 20 -9z
m212 4 c15 12 56 11 77 -3 11 -6 10 -10 -5 -18 -29 -17 -43 -17 -37 1 4 10 2
13 -5 8 -7 -4 -12 -14 -12 -22 0 -8 -5 -14 -11 -14 -5 0 -8 4 -4 9 3 5 -4 12
-15 16 -11 3 -20 14 -20 23 0 14 2 15 9 3 7 -11 13 -12 23 -3z"/>
<path d="M9434 7015 c0 -71 1 -99 3 -62 2 37 2 96 0 130 -2 34 -3 4 -3 -68z"/>
<path d="M7662 6080 l-1 -965 518 -528 518 -528 7 -76 c3 -42 6 -371 6 -731 0
-567 -2 -653 -14 -649 -8 3 -127 40 -264 81 -316 96 -300 89 -305 123 -3 24
-4 23 -6 -8 -1 -34 1 -36 42 -48 23 -7 158 -48 300 -92 143 -44 261 -79 263
-76 2 2 4 335 4 741 l0 737 -97 103 c-252 266 -936 966 -944 966 -5 0 -10 316
-10 718 -1 394 -5 825 -8 957 -5 151 -8 -120 -9 -725z"/>
<path d="M9424 6730 c0 -74 1 -105 3 -67 2 37 2 97 0 135 -2 37 -3 6 -3 -68z"/>
<path d="M8738 6744 c-5 -4 -8 -69 -8 -145 l0 -137 28 -10 c15 -6 159 -60 321
-121 162 -61 296 -109 298 -108 5 6 -105 52 -348 147 -129 50 -244 95 -256
100 -21 9 -23 16 -25 146 -2 74 -6 132 -10 128z"/>
<path d="M8149 6129 l3 -440 252 -257 c139 -141 376 -387 527 -547 151 -159
313 -330 362 -381 l87 -92 0 -413 c0 -228 -7 -693 -15 -1034 -8 -341 -15 -697
-15 -790 l0 -171 -157 -38 c-87 -22 -152 -41 -145 -44 7 -2 81 13 164 34 120
31 152 43 159 59 4 11 12 371 18 800 6 429 14 960 18 1181 l6 400 -89 94
c-186 197 -812 847 -1026 1066 l-138 141 -1 419 c0 231 -3 427 -7 436 -4 10
-5 -181 -3 -423z"/>
<path d="M8805 6470 c27 -12 43 -12 25 0 -8 5 -22 9 -30 9 -10 0 -8 -3 5 -9z"/>
<path d="M8490 5387 c0 -2 15 -16 33 -33 l32 -29 -29 33 c-28 30 -36 37 -36
29z"/>
<path d="M7780 5198 c-41 -22 -77 -42 -79 -45 -3 -2 62 -72 145 -156 82 -84
254 -260 383 -392 129 -132 299 -305 377 -385 l142 -145 6 -65 c3 -36 5 -102
5 -148 1 -54 5 -81 11 -77 6 4 8 11 5 16 -4 5 4 9 15 9 16 0 20 -4 16 -16 -5
-13 -3 -14 6 -7 7 6 21 9 31 8 9 -2 17 1 17 6 0 5 -9 9 -19 9 -11 0 -23 5 -27
12 -5 7 -3 8 6 3 10 -6 12 -4 7 8 -5 12 -1 17 13 17 11 0 20 -5 20 -11 0 -5
-5 -7 -12 -3 -6 4 -3 -4 8 -18 16 -22 20 -23 34 -10 11 12 12 16 2 20 -6 2
-12 8 -12 13 0 6 5 7 10 4 6 -4 10 44 10 137 l0 144 -67 75 c-304 338 -960
1039 -973 1039 -3 0 -39 -19 -80 -42z"/>
<path d="M9085 3800 c3 -5 8 -10 11 -10 2 0 4 5 4 10 0 6 -5 10 -11 10 -5 0
-7 -4 -4 -10z"/>
<path d="M9006 3772 c-4 -4 -13 -7 -19 -8 -7 0 -20 -2 -29 -2 -11 -1 -18 -10
-18 -21 0 -14 5 -18 21 -14 12 4 18 11 15 20 -4 8 -1 13 5 11 6 -2 10 -7 10
-11 -1 -4 -1 -14 -1 -23 0 -8 -4 -12 -10 -9 -14 9 -12 -4 3 -19 7 -7 20 -13
30 -13 16 0 16 2 1 18 -15 17 -16 19 0 25 9 3 16 10 16 16 0 5 -4 7 -9 3 -5
-3 -12 -1 -15 4 -4 5 2 11 11 13 12 2 14 6 7 10 -6 4 -14 4 -18 0z"/>
<path d="M8760 3755 c0 -8 5 -15 10 -15 7 0 7 -7 -1 -21 -6 -12 -7 -25 -2 -30
5 -5 9 0 10 13 2 25 21 40 46 34 9 -2 17 0 17 6 0 6 -12 8 -26 5 -16 -3 -28 0
-31 9 -7 19 -23 18 -23 -1z"/>
<path d="M8856 3738 c3 -5 10 -6 15 -3 13 9 11 12 -6 12 -8 0 -12 -4 -9 -9z"/>
<path d="M9040 3734 c0 -8 5 -12 10 -9 6 4 8 11 5 16 -9 14 -15 11 -15 -7z"/>
<path d="M9090 3731 c-25 -7 -25 -7 -3 -13 13 -3 26 -2 29 3 3 6 15 7 27 4 17
-5 19 -4 7 4 -17 12 -24 12 -60 2z"/>
<path d="M9303 3733 c-17 -6 -17 -20 0 -26 8 -3 13 3 13 14 0 11 0 19 -1 18 0
0 -6 -3 -12 -6z"/>
<path d="M8860 3710 c-12 -7 -10 -9 7 -7 12 0 19 5 17 9 -6 10 -6 10 -24 -2z"/>
<path d="M9140 3689 c0 -5 5 -7 10 -4 6 3 10 8 10 11 0 2 -4 4 -10 4 -5 0 -10
-5 -10 -11z"/>
<path d="M7654 3350 c0 -162 2 -229 3 -147 2 81 2 213 0 295 -1 81 -3 14 -3
-148z"/>
<path d="M7755 3632 c11 -5 95 -26 187 -48 116 -27 169 -44 172 -54 2 -9 4 -7
5 6 1 18 -15 24 -151 58 -155 37 -252 55 -213 38z"/>
<path d="M8145 3185 c0 -209 1 -296 2 -193 2 103 2 274 0 380 -1 106 -2 22 -2
-187z"/>
<path d="M8112 3475 c0 -16 2 -22 5 -12 2 9 2 23 0 30 -3 6 -5 -1 -5 -18z"/>
<path d="M8112 3420 c0 -14 2 -19 5 -12 2 6 2 18 0 25 -3 6 -5 1 -5 -13z"/>
<path d="M8111 3374 c0 -11 3 -14 6 -6 3 7 2 16 -1 19 -3 4 -6 -2 -5 -13z"/>
<path d="M8111 3334 c0 -11 3 -14 6 -6 3 7 2 16 -1 19 -3 4 -6 -2 -5 -13z"/>
<path d="M8111 3294 c0 -11 3 -14 6 -6 3 7 2 16 -1 19 -3 4 -6 -2 -5 -13z"/>
<path d="M7654 2920 c0 -74 1 -105 3 -67 2 37 2 97 0 135 -2 37 -3 6 -3 -68z"/>
<path d="M7623 2915 c0 -22 2 -30 4 -17 2 12 2 30 0 40 -3 9 -5 -1 -4 -23z"/>
<path d="M7651 2754 c0 -11 3 -14 6 -6 3 7 2 16 -1 19 -3 4 -6 -2 -5 -13z"/>
<path d="M7632 2590 c0 -19 2 -27 5 -17 2 9 2 25 0 35 -3 9 -5 1 -5 -18z"/>
<path d="M7633 2430 c0 -47 2 -66 4 -42 2 23 2 61 0 85 -2 23 -4 4 -4 -43z"/>
<path d="M4592 6780 c0 -14 2 -19 5 -12 2 6 2 18 0 25 -3 6 -5 1 -5 -13z"/>
<path d="M7352 6908 c-19 -11 -72 -38 -119 -58 l-86 -37 2 -708 c0 -390 -3
-705 -8 -699 -24 27 -631 1235 -631 1256 0 7 -14 -4 -30 -24 -17 -20 -40 -40
-52 -43 -12 -5 -16 -10 -10 -14 8 -5 13 -331 16 -1121 6 -1426 8 -1723 13
-1682 4 28 7 31 19 21 12 -10 17 -10 27 0 9 10 8 11 -8 6 -19 -6 -19 -6 -1 5
14 10 20 10 26 0 8 -14 20 10 20 41 0 10 5 19 11 19 6 0 9 6 6 13 -3 8 -1 20
4 28 7 11 9 10 10 -6 1 -26 6 -53 14 -73 6 -16 7 -16 16 1 6 9 15 17 22 17 7
0 6 -4 -3 -10 -12 -7 -12 -10 -1 -10 7 0 11 -6 8 -14 -4 -10 -1 -13 9 -9 8 3
13 8 10 11 -3 2 3 17 14 32 25 36 25 44 -2 59 -13 6 -15 9 -5 6 10 -2 20 2 23
10 4 8 10 12 15 9 5 -3 9 0 9 5 0 6 -4 11 -10 11 -5 0 -10 5 -10 11 0 5 5 7
10 4 7 -4 10 237 10 717 l0 723 43 -76 c23 -42 75 -136 116 -210 41 -74 106
-190 144 -259 39 -69 91 -161 115 -205 30 -53 45 -93 46 -120 1 -22 3 -210 4
-417 2 -348 3 -378 19 -378 13 0 14 3 5 12 -19 19 -14 45 9 51 19 5 20 4 5
-12 -19 -20 -20 -31 -5 -31 5 0 8 4 5 9 -3 4 3 16 14 26 11 10 20 13 20 8 0
-6 11 -10 25 -10 25 0 33 15 16 33 -6 5 0 16 16 28 15 11 23 14 19 8 -4 -7 -2
-12 3 -12 6 0 11 5 11 11 0 6 7 8 16 5 10 -4 14 -1 11 6 -2 7 -10 14 -18 14
-8 1 -20 2 -26 3 -7 0 -13 6 -13 12 0 5 4 8 9 5 5 -4 11 -1 13 5 3 8 10 6 21
-5 9 -10 21 -15 26 -12 4 3 7 -7 5 -22 -2 -15 1 -58 5 -97 5 -41 9 291 11 805
1 481 4 1207 6 1613 2 405 3 737 1 737 -1 0 -17 -10 -35 -22z m-68 -2964 c3
-8 2 -12 -4 -9 -6 3 -10 10 -10 16 0 14 7 11 14 -7z m-689 -24 c3 -5 1 -10 -4
-10 -6 0 -11 5 -11 10 0 6 2 10 4 10 3 0 8 -4 11 -10z m681 -12 c1 -11 -3 -15
-12 -11 -17 6 -19 36 -2 31 6 -2 12 -11 14 -20z m-784 -10 c-7 -7 -12 -8 -12
-2 0 14 12 26 19 19 2 -3 -1 -11 -7 -17z m145 -50 c-3 -8 -6 -5 -6 6 -1 11 2
17 5 13 3 -3 4 -12 1 -19z m599 -20 c-16 -11 -46 -10 -46 1 0 5 10 7 22 3 16
-4 20 -2 15 10 -3 9 -3 19 1 23 3 3 9 -2 13 -12 3 -10 1 -21 -5 -25z m-726 17
c0 -18 -36 -20 -46 -3 -5 8 0 9 14 6 12 -4 22 -2 22 3 0 5 2 9 5 9 3 0 5 -7 5
-15z m750 -29 c0 -3 -4 -8 -10 -11 -5 -3 -10 -1 -10 4 0 6 5 11 10 11 6 0 10
-2 10 -4z"/>
<path d="M7401 5839 c1 -596 5 -1507 9 -2024 4 -562 5 -127 2 1080 -2 1111 -6
2022 -8 2024 -2 2 -3 -484 -3 -1080z"/>
<path d="M6425 6699 c-66 -27 -70 -32 -55 -69 15 -36 36 -53 25 -21 -11 36 4
59 57 85 61 31 44 33 -27 5z"/>
<path d="M6522 6702 c34 -81 446 -912 453 -912 3 0 -62 134 -143 298 -153 307
-267 547 -284 595 -6 15 -14 27 -20 27 -5 0 -8 -4 -6 -8z"/>
<path d="M6341 6454 c0 -11 3 -14 6 -6 3 7 2 16 -1 19 -3 4 -6 -2 -5 -13z"/>
<path d="M6342 6405 c0 -16 2 -22 5 -12 2 9 2 23 0 30 -3 6 -5 -1 -5 -18z"/>
<path d="M6345 5845 c0 -242 1 -340 2 -217 2 123 2 321 0 440 -1 119 -2 19 -2
-223z"/>
<path d="M6344 5250 c0 -85 2 -120 3 -77 2 42 2 112 0 155 -1 42 -3 7 -3 -78z"/>
<path d="M6712 4343 l3 -898 3 875 2 875 33 -55 c33 -55 250 -468 276 -525 8
-17 16 -25 18 -17 3 7 -54 121 -125 255 -71 133 -146 275 -166 315 -20 39 -38
72 -41 72 -3 0 -4 -404 -3 -897z"/>
<path d="M6345 4725 c0 -198 1 -280 2 -183 2 97 2 259 0 360 -1 101 -2 21 -2
-177z"/>
<path d="M6342 4310 c0 -19 2 -27 5 -17 2 9 2 25 0 35 -3 9 -5 1 -5 -18z"/>
<path d="M6343 4205 c0 -33 2 -45 4 -27 2 18 2 45 0 60 -2 15 -4 0 -4 -33z"/>
<path d="M6342 3930 c0 -14 2 -19 5 -12 2 6 2 18 0 25 -3 6 -5 1 -5 -13z"/>
<path d="M7305 3841 c-19 -8 -19 -8 2 -19 31 -17 42 -15 36 8 -6 22 -8 22 -38
11z"/>
<path d="M6610 3741 c0 -7 -5 -9 -12 -5 -7 5 -8 3 -3 -5 5 -9 10 -10 18 -2 6
6 8 14 4 18 -4 3 -7 1 -7 -6z"/>
<path d="M6365 2680 c3 -4 22 -11 42 -14 21 -4 97 -18 170 -32 73 -14 138 -24
145 -22 7 3 -63 19 -157 37 -93 17 -178 33 -188 35 -9 2 -15 1 -12 -4z"/>
<path d="M5765 6630 c3 -5 8 -10 11 -10 2 0 4 5 4 10 0 6 -5 10 -11 10 -5 0
-7 -4 -4 -10z"/>
<path d="M6025 6579 c-82 -36 -723 -296 -809 -329 -16 -6 -26 -13 -23 -16 9
-9 855 314 884 338 10 8 13 -184 15 -943 l3 -954 5 968 c3 532 3 967 0 967 -3
-1 -36 -14 -75 -31z"/>
<path d="M5910 6415 c-74 -30 -256 -101 -405 -159 l-270 -105 1 -423 c0 -233
1 -757 2 -1165 l2 -741 42 4 c26 2 45 -1 50 -9 11 -16 5 23 -5 41 -5 7 -3 12
3 12 6 0 9 4 5 9 -3 5 4 12 15 16 11 3 20 11 20 17 0 5 -7 8 -15 5 -8 -4 -17
-2 -20 4 -4 5 -3 9 2 8 30 -5 33 3 33 82 l0 82 53 -6 c28 -4 142 -9 252 -13
110 -4 201 -7 202 -8 1 -1 3 -46 5 -101 l3 -100 33 3 c17 2 32 -1 32 -6 0 -5
7 -9 15 -9 8 0 15 4 15 9 0 4 -5 8 -12 8 -6 0 -3 10 8 22 10 12 14 19 9 16 -6
-4 -10 6 -10 21 -1 23 3 27 22 23 17 -3 23 0 23 13 0 12 6 16 20 12 20 -5 20
0 20 1244 0 687 -3 1249 -7 1248 -5 0 -69 -25 -143 -54z m-31 -362 c0 -49 0
-459 0 -912 l1 -825 -47 2 c-27 2 -133 7 -238 12 -104 5 -198 10 -208 10 -16
0 -17 44 -15 816 l3 816 229 79 c126 43 231 81 234 84 3 3 14 5 24 5 16 0 18
-9 17 -87z m76 -2153 c-3 -5 -18 -10 -33 -9 l-27 1 25 8 c35 11 42 11 35 0z"/>
<path d="M5655 5974 c-77 -23 -148 -48 -157 -53 -10 -6 -30 -11 -44 -11 l-27
0 6 -547 c4 -302 8 -638 9 -748 2 -110 5 132 8 538 l5 739 168 52 c158 50 186
61 176 69 -2 2 -67 -15 -144 -39z"/>
<path d="M5690 5950 c-30 -11 -93 -30 -140 -44 l-85 -26 3 -710 2 -711 26 -9
c14 -6 65 -10 113 -10 49 0 104 -3 122 -7 32 -8 31 -8 -21 -13 l-55 -6 63 -4
62 -5 0 783 c0 738 -1 782 -17 781 -10 0 -43 -9 -73 -19z"/>
<path d="M5442 3865 c0 -16 2 -22 5 -12 2 9 2 23 0 30 -3 6 -5 -1 -5 -18z"/>
<path d="M5915 3850 c4 -6 11 -8 16 -5 14 9 11 15 -7 15 -8 0 -12 -5 -9 -10z"/>
<path d="M5910 3810 c0 -5 7 -7 15 -4 8 4 15 8 15 10 0 2 -7 4 -15 4 -8 0 -15
-4 -15 -10z"/>
<path d="M5300 3775 c0 -8 2 -15 4 -15 2 0 6 7 10 15 3 8 1 15 -4 15 -6 0 -10
-7 -10 -15z"/>
<path d="M5444 3580 c0 -58 1 -81 3 -52 2 28 2 76 0 105 -2 28 -3 5 -3 -53z"/>
<path d="M5760 3521 c0 -5 5 -13 10 -16 6 -3 10 -2 10 4 0 5 -4 13 -10 16 -5
3 -10 2 -10 -4z"/>
<path d="M5766 3459 c-3 -17 -5 -176 -4 -353 l2 -321 6 350 c3 193 4 351 4
353 -1 1 -4 -12 -8 -29z"/>
<path d="M5442 3420 c0 -14 2 -19 5 -12 2 6 2 18 0 25 -3 6 -5 1 -5 -13z"/>
<path d="M5448 2845 c-3 -14 -1 -25 3 -25 5 0 9 11 9 25 0 14 -2 25 -4 25 -2
0 -6 -11 -8 -25z"/>
<path d="M5233 2853 c9 -2 23 -2 30 0 6 3 -1 5 -18 5 -16 0 -22 -2 -12 -5z"/>
<path d="M5303 2843 c9 -2 25 -2 35 0 9 3 1 5 -18 5 -19 0 -27 -2 -17 -5z"/>
<path d="M5378 2833 c12 -2 30 -2 40 0 9 3 -1 5 -23 4 -22 0 -30 -2 -17 -4z"/>
<path d="M5978 2723 c7 -3 16 -2 19 1 4 3 -2 6 -13 5 -11 0 -14 -3 -6 -6z"/>
<path d="M2591 5058 c1 -821 5 -1803 9 -2183 3 -379 4 288 2 1484 -5 2136 -5
2173 14 2167 10 -3 78 -19 149 -36 72 -17 149 -35 173 -41 l42 -12 2 -1436 c1
-790 2 -1730 3 -2088 0 -429 3 -653 10 -653 7 0 11 709 13 2100 l3 2099 -23 6
c-135 31 -380 85 -388 85 -7 0 -10 -474 -9 -1492z"/>
<path d="M2616 5240 c2 -690 8 -1289 11 -1330 4 -41 6 -85 6 -97 0 -12 4 -20
8 -17 5 3 9 0 9 -5 0 -17 -4 -26 -11 -24 -4 1 -5 -7 -2 -17 7 -25 25 -27 21
-2 -2 11 2 16 12 14 12 -3 12 -1 3 9 -18 18 28 59 58 52 15 -4 20 -3 15 5 -8
14 -4 15 18 6 32 -12 18 -33 -20 -28 -32 4 -36 2 -31 -15 3 -11 1 -22 -4 -25
-5 -2 -4 -3 3 -2 7 2 12 10 10 20 -4 21 7 21 25 -1 8 -10 12 -13 8 -6 -3 8 7
14 30 19 19 3 35 10 35 15 0 5 -7 6 -15 3 -11 -4 -13 -2 -9 9 6 18 48 17 67
-2 9 -10 8 -11 -4 -6 -12 5 -21 -3 -32 -24 -15 -29 -14 -30 3 -21 22 12 33 0
24 -24 -4 -11 -1 -16 10 -16 18 0 20 5 7 28 -6 12 -4 21 6 31 13 12 14 11 8
-9 -5 -15 -4 -20 4 -16 6 4 12 19 13 34 1 15 2 513 3 1107 3 1274 1 1161 20
1145 10 -8 15 -38 18 -98 2 -48 3 -5 3 96 -1 100 2 182 7 182 4 0 7 35 7 77
l0 77 -25 -34 c-14 -19 -35 -61 -47 -94 l-22 -59 -45 54 c-25 30 -78 88 -117
129 -39 41 -76 84 -82 95 -8 15 -10 -315 -6 -1235z m311 945 c-3 -19 -1 -37 4
-40 14 -9 11 -22 -6 -22 -16 0 -21 50 -9 81 11 28 17 17 11 -19z m11 -104 c-1
-26 -3 -28 -15 -15 -12 12 -12 18 -3 29 17 21 19 19 18 -14z m-133 -2209 c-3
-3 -11 0 -18 7 -9 10 -8 11 6 5 10 -3 15 -9 12 -12z m-115 -48 c0 -2 -7 -4
-15 -4 -8 0 -15 4 -15 10 0 5 7 7 15 4 8 -4 15 -8 15 -10z m170 -34 c0 -5 -2
-10 -4 -10 -3 0 -8 5 -11 10 -3 6 -1 10 4 10 6 0 11 -4 11 -10z"/>
<path d="M2667 3730 c-12 -14 -13 -20 -4 -20 14 0 37 20 37 32 0 14 -15 9 -33
-12z"/>
<path d="M2719 3741 c11 -7 11 -9 0 -13 -8 -3 -10 -9 -6 -14 9 -10 28 16 21
28 -3 4 -11 8 -17 8 -8 0 -7 -3 2 -9z"/>
<path d="M2657 3689 c7 -7 15 -10 18 -7 3 3 -2 9 -12 12 -14 6 -15 5 -6 -5z"/>
<path d="M2574 2265 c0 -60 1 -84 3 -52 2 32 2 81 0 110 -2 29 -3 3 -3 -58z"/>
<path d="M2948 2253 c7 -3 16 -2 19 1 4 3 -2 6 -13 5 -11 0 -14 -3 -6 -6z"/>
<path d="M2858 2233 c7 -3 16 -2 19 1 4 3 -2 6 -13 5 -11 0 -14 -3 -6 -6z"/>
<path d="M2818 2223 c7 -3 16 -2 19 1 4 3 -2 6 -13 5 -11 0 -14 -3 -6 -6z"/>
<path d="M2778 2213 c7 -3 16 -2 19 1 4 3 -2 6 -13 5 -11 0 -14 -3 -6 -6z"/>
<path d="M3220 6400 c0 -3 44 -17 98 -30 167 -40 164 -39 152 -60 -11 -21 -12
-1610 0 -1875 5 -118 7 -38 8 300 1 253 5 717 9 1032 l6 572 -29 7 c-16 3 -77
19 -136 34 -60 15 -108 24 -108 20z"/>
<path d="M3246 6133 c1 -115 3 -604 5 -1088 3 -759 10 -1281 17 -1223 1 9 11
19 21 23 12 3 19 14 18 25 -1 14 -6 18 -19 14 -10 -3 -18 0 -18 6 0 6 5 8 10
5 6 -3 10 -1 10 4 0 6 11 11 25 11 21 0 24 4 21 30 -2 17 1 30 5 30 5 0 9 -5
9 -11 0 -8 6 -7 17 2 10 8 14 9 10 2 -4 -6 -4 -14 1 -17 4 -2 9 7 10 21 1 19
-2 24 -13 19 -8 -3 -15 -1 -15 5 0 5 7 12 15 15 13 5 15 116 17 847 1 463 2
955 1 1092 l-1 250 -68 73 c-38 40 -71 72 -74 72 -3 0 -4 -93 -4 -207z m119
-2102 c3 -6 -3 -15 -14 -21 -14 -7 -22 -7 -26 0 -4 6 -3 10 2 9 20 -3 34 2 28
11 -3 6 -4 10 -1 10 3 0 7 -4 11 -9z m-58 -78 c0 -7 -4 -13 -8 -13 -4 0 -9 6
-12 13 -3 8 0 14 7 14 7 0 13 -6 13 -14z m-22 -93 c3 -5 1 -10 -4 -10 -6 0
-11 5 -11 10 0 6 2 10 4 10 3 0 8 -4 11 -10z"/>
<path d="M3354 3919 c0 -14 3 -16 16 -6 8 6 16 12 18 13 1 1 -5 4 -15 6 -13 4
-19 0 -19 -13z"/>
<path d="M3361 3890 c-18 -15 -19 -20 -7 -20 9 0 16 -4 16 -10 0 -5 5 -10 11
-10 8 0 8 5 -1 15 -10 12 -10 18 0 30 17 20 10 18 -19 -5z"/>
<path d="M3262 3745 c0 -16 2 -22 5 -12 2 9 2 23 0 30 -3 6 -5 -1 -5 -18z"/>
<path d="M3680 6096 c0 -141 3 -256 6 -256 4 0 32 20 62 45 36 30 64 45 83 45
43 0 512 -49 517 -54 2 -3 -32 -23 -77 -45 l-81 -41 -2 -163 -2 -162 -6 160
c-4 115 -6 59 -7 -195 0 -195 3 -339 7 -320 4 21 8 -34 9 -135 8 -804 13
-1131 17 -1134 2 -3 11 4 20 15 8 10 13 13 9 7 -3 -7 -1 -13 5 -13 6 0 10 8 8
17 -2 10 5 19 15 21 15 3 18 0 12 -17 -7 -24 10 -29 19 -6 6 18 36 9 36 -11 0
-17 38 -13 49 5 5 7 12 12 17 12 5 -1 10 423 12 996 1 548 4 999 6 1001 4 4
391 -37 424 -45 22 -5 22 -5 22 127 l0 133 40 43 40 44 0 -231 0 -230 -47 6
c-142 18 -389 42 -396 38 -9 -5 -3 -746 13 -1708 6 -308 11 -758 11 -1000 1
-242 4 -489 8 -550 3 -60 4 643 2 1563 -2 994 0 1672 6 1672 5 0 96 -9 203
-20 107 -11 202 -20 212 -20 17 0 18 17 18 263 l0 264 -47 0 c-32 0 -37 -1
-16 -4 l33 -4 -50 -50 -50 -50 -132 16 c-73 9 -295 33 -493 55 -198 22 -379
42 -402 45 -38 6 -47 12 -79 61 -20 30 -40 57 -45 60 -5 3 -9 -101 -9 -250z
m17 62 c-2 -29 -3 -6 -3 52 0 58 1 81 3 53 2 -29 2 -77 0 -105z m490 -795 c-3
-10 -5 -2 -5 17 0 19 2 27 5 18 2 -10 2 -26 0 -35z m0 -155 c-2 -13 -4 -5 -4
17 -1 22 1 32 4 23 2 -10 2 -28 0 -40z m0 -50 c-3 -8 -6 -5 -6 6 -1 11 2 17 5
13 3 -3 4 -12 1 -19z m114 -1212 c5 3 9 0 9 -5 0 -6 -4 -11 -10 -11 -5 0 -10
-4 -10 -9 0 -5 10 -7 23 -5 12 2 16 2 9 -2 -6 -3 -10 -10 -7 -15 5 -8 -54 -1
-64 8 -3 2 4 10 15 18 18 14 17 14 -10 5 -16 -6 -32 -8 -35 -4 -3 4 0 9 7 11
6 3 10 9 7 13 -3 5 9 5 26 0 18 -5 36 -7 40 -4z m74 -36 c8 7 12 5 12 -5 0 -8
-4 -15 -8 -15 -4 0 -16 -3 -26 -6 -15 -5 -15 -4 -3 5 10 7 11 11 3 11 -7 0
-13 5 -13 12 0 9 3 9 12 0 7 -7 16 -8 23 -2z m-153 -32 c-7 -7 -12 -8 -12 -2
0 6 3 14 7 17 3 4 9 5 12 2 2 -3 -1 -11 -7 -17z"/>
<path d="M4808 6223 c6 -2 18 -2 25 0 6 3 1 5 -13 5 -14 0 -19 -2 -12 -5z"/>
<path d="M4292 3849 c-7 -10 -12 -21 -12 -24 0 -10 29 7 34 20 8 23 -9 26 -22
4z"/>
<path d="M4380 3837 c0 -9 -10 -12 -31 -9 -18 3 -29 1 -26 -4 3 -5 20 -9 38
-9 24 0 35 5 37 18 2 9 -1 17 -7 17 -6 0 -11 -6 -11 -13z"/>
<path d="M4205 3820 c-3 -5 1 -10 9 -10 9 0 16 5 16 10 0 6 -4 10 -9 10 -6 0
-13 -4 -16 -10z"/>
<path d="M4210 3789 c0 -5 5 -7 10 -4 6 3 10 8 10 11 0 2 -4 4 -10 4 -5 0 -10
-5 -10 -11z"/>
<path d="M4142 2715 c0 -16 2 -22 5 -12 2 9 2 23 0 30 -3 6 -5 -1 -5 -18z"/>
<path d="M4141 2624 c0 -11 3 -14 6 -6 3 7 2 16 -1 19 -3 4 -6 -2 -5 -13z"/>
<path d="M4142 2535 c0 -16 2 -22 5 -12 2 9 2 23 0 30 -3 6 -5 -1 -5 -18z"/>
<path d="M4523 2363 c-3 -10 -34 -85 -69 -168 -34 -82 -68 -169 -75 -192 -7
-24 -15 -43 -18 -43 -3 1 -35 64 -70 141 -35 76 -66 138 -68 136 -2 -2 26 -69
63 -148 64 -140 72 -159 73 -187 1 -7 5 -11 10 -8 11 7 64 137 58 143 -2 2
-14 -23 -27 -57 -12 -33 -26 -60 -31 -60 -9 0 34 120 100 280 54 128 72 180
65 180 -2 0 -7 -8 -11 -17z"/>
<path d="M4546 2365 c-9 -26 -7 -32 5 -12 6 10 9 21 6 23 -2 3 -7 -2 -11 -11z"/>
<path d="M4516 2285 c-9 -26 -7 -32 5 -12 6 10 9 21 6 23 -2 3 -7 -2 -11 -11z"/>
<path d="M4471 2169 c-17 -45 -30 -83 -28 -85 2 -2 18 33 36 77 17 45 30 83
28 85 -2 2 -18 -33 -36 -77z"/>
</g>
</svg>
